<svg width="286" height="100" viewBox="0 0 286 100" fill="none" xmlns="http://www.w3.org/2000/svg"><path fill-rule="evenodd" clip-rule="evenodd" d="M25.1217 61.2924C24.6224 61.2033 23.2605 60.9797 22.0953 60.7956C11.9023 59.184 4.22953 52.2477 1.54865 42.2227C0.118681 36.8761 0.145579 29.2765 1.61338 23.8181C4.43129 13.3392 12.4907 5.71184 23.1697 3.41683C29.1426 2.13397 37.1491 2.46098 43.2296 4.23815L44.6924 4.6652V10.7895C44.6924 14.158 44.6596 16.9137 44.6184 16.9137C44.578 16.9137 43.6895 16.5085 42.6445 16.0133C39.0767 14.3236 34.9693 13.5435 30.6945 13.7435C21.9549 14.1538 15.9467 19.3357 14.3301 27.8592C13.8921 30.1668 13.93 34.6895 14.4066 36.9888C15.1893 40.7667 16.7428 43.6654 19.2329 45.9915C21.5674 48.1722 24.2701 49.471 27.5891 50.0065C30.064 50.4058 35.0163 50.1637 37.5896 49.5172C39.6963 48.9884 42.6605 47.8644 43.8088 47.16C44.1544 46.9481 44.4948 46.7741 44.5654 46.7741C44.6352 46.7741 44.6924 49.4003 44.6924 52.6108V58.4467L43.0741 59.0713C41.0305 59.859 38.0764 60.5778 35.6099 60.8872C34.5582 61.0192 33.0895 61.2117 32.3464 61.3151C30.7508 61.537 26.4138 61.5227 25.1217 61.2924ZM59.6226 60.9939C57.0594 60.3323 55.3747 59.4454 53.8876 57.9743C51.6169 55.7272 50.5434 52.8446 50.5434 48.9935C50.5434 45.0953 51.6203 42.2219 53.9506 39.9008C56.5718 37.2897 59.436 36.1859 65.9646 35.2721C68.3024 34.9443 71.3952 34.5164 72.8378 34.3197L75.4607 33.9624L75.3985 33.0545C75.2177 30.4257 73.7996 28.5569 71.4297 27.8247C67.3786 26.5738 60.2867 28.0441 55.3529 31.1588C54.9317 31.4244 54.5399 31.6421 54.4819 31.6421C54.4239 31.6421 54.3768 29.5565 54.3768 27.0067C54.3768 21.5887 54.0683 22.2082 57.3259 21.0817C61.5427 19.624 65.7224 18.9195 70.1561 18.9204C77.8944 18.9212 82.8081 21.4356 85.3528 26.699C87.1686 30.4551 87.2636 31.479 87.2636 47.3239V60.292H75.3708L75.2589 54.5923L74.4679 55.7415C71.37 60.2424 65.1869 62.4306 59.6226 60.9939ZM69.9064 52.1039C71.3356 51.6794 72.2645 51.0691 73.3943 49.8123C74.8798 48.1604 75.6624 45.466 75.5212 42.4918L75.4607 41.2257L74.7545 41.2904C71.8484 41.5552 66.4891 42.4127 65.5274 42.7675C64.0991 43.2929 62.6523 44.6901 62.2925 45.8914C61.4737 48.6227 62.7591 51.2439 65.3727 52.1762C66.2874 52.5016 68.695 52.4637 69.9073 52.1039H69.9064ZM159.796 61.3041C159.463 61.2066 158.57 60.9855 157.811 60.8132C154.593 60.0844 152.085 58.171 150.742 55.4212C149.298 52.4637 149.327 52.7638 149.253 40.2674L149.185 29.0193H142.546V19.7384H149.204V11.0795L150.566 10.6794C154.82 9.42761 161.238 7.63277 161.457 7.63277C161.658 7.63277 161.713 8.93242 161.713 13.6822V19.7308L170.691 19.8392L170.8 29.0193H161.713V38.1674C161.713 48.0284 161.748 48.4151 162.796 49.9972C163.941 51.7281 166.909 52.2376 169.535 51.1548L170.8 50.6328L170.692 59.9767L169.719 60.3382C167.422 61.1907 161.408 61.7758 159.797 61.3041H159.796ZM215.885 61.2562C211.072 60.3433 209.327 59.7674 206.757 58.2399C205.325 57.3892 202.8 54.9076 201.765 53.3321C199.637 50.0973 198.435 45.5425 198.435 40.7213C198.435 30.2273 203.78 22.4226 212.903 19.5946C214.597 19.07 216.828 18.6825 218.928 18.7035C221.091 18.6917 223.231 19.0801 224.964 19.6114C225.963 19.9174 227.325 20.4361 227.991 20.7639C231.866 22.6723 234.809 26.24 236.216 30.7342C237.047 33.3907 237.249 35.0847 237.261 39.5107L237.273 43.6469L210.943 43.7511V44.2118C210.943 45.023 211.545 47.0162 212.096 48.0284C213.188 50.0359 215.462 51.5137 218.427 52.1451C219.562 52.3864 220.649 52.4385 222.948 52.3628C227.151 52.2241 229.313 51.6314 233.591 49.4415C233.674 49.3986 233.742 51.4053 233.742 53.9013V58.4391L232.279 59.0436C230.084 59.9507 228.404 60.4197 226.067 60.7795C224.906 60.9586 223.402 61.194 222.723 61.3041C221.223 61.5463 217.27 61.5185 215.886 61.2562H215.885ZM225.667 35.0216C225.662 33.8001 225.168 31.6245 224.676 30.6603C223.577 28.5065 221.662 27.3775 219.038 27.3354C216.725 27.2976 215.593 27.7616 213.916 29.4354C212.417 30.9335 211.561 32.4895 211.068 34.6181L210.777 35.8791H225.671L225.668 35.0216H225.667ZM97.1498 40.0152V19.7384H109.659V26.2392L110.585 24.9816C113.695 20.7564 117.385 18.9212 122.773 18.9195C130.786 18.917 135.097 23.1288 136.076 31.9171C136.207 33.0864 136.291 39.0501 136.291 47.0692V60.292H123.782L123.777 48.3377C123.775 41.7452 123.686 35.7799 123.579 35.0376C123.147 32.0549 121.989 30.1113 120.054 29.1227C118.985 28.5762 118.682 28.5157 117.036 28.5233C115.466 28.5308 115.045 28.6099 114.068 29.0823C112.166 30.0029 110.57 32.0574 109.972 34.3583C109.705 35.3814 109.658 37.4015 109.658 47.9266V60.292H97.149V40.0152H97.1498ZM177.854 60.292V19.7384H190.363V60.292H177.854ZM244.838 40.2169V19.9905C244.838 19.9073 247.63 19.8392 251.042 19.8392H257.246L257.301 23.5659L257.356 27.2917L258.273 25.417C260.417 21.0305 264.009 18.9052 268.816 19.1793C271.705 19.3441 271.47 18.7951 271.47 25.3952C271.47 28.4981 271.427 31.0369 271.373 31.0369C271.32 31.0369 270.571 30.7973 269.709 30.5047C267.595 29.7876 264.682 29.7456 262.966 30.4089C260.583 31.3294 259.052 33.0578 258.011 36.0018L257.448 37.5941L257.331 60.292H244.838V40.2169ZM277.109 18.8708C274.467 18.1234 272.896 15.9999 272.887 13.1635C272.88 10.718 274.217 8.66258 276.446 7.69414C277.639 7.17545 280.003 7.23852 281.207 7.82026C283.15 8.75928 284.584 10.9929 284.584 13.0794C284.584 15.3089 283.204 17.5846 281.291 18.511C280.188 19.0448 278.3 19.207 277.109 18.8708ZM280.685 17.9351C282.635 17.0499 283.914 14.9012 283.736 12.8071C283.381 8.62898 278.595 6.54832 275.477 9.21743C273.913 10.5558 273.303 12.8348 273.935 14.9734C274.238 16.0016 275.927 17.7502 276.918 18.0621C278.049 18.4193 279.745 18.3622 280.685 17.9351ZM276.312 13.0803V9.24683L277.775 9.25863C279.802 9.27544 280.549 9.51168 281.014 10.4625C281.351 11.1527 281.326 11.4948 281.132 12.0892C280.982 12.5456 280.603 12.8911 280.24 13.0769C279.91 13.2459 279.603 13.4064 279.556 13.435C279.51 13.4628 279.659 13.6898 279.888 13.9394C280.116 14.1883 280.587 14.96 280.934 15.6536L281.564 16.9146L280.511 16.8793C280.511 16.8793 280.446 16.6976 279.941 15.6981C279.165 14.1622 278.69 13.6864 277.926 13.6864H277.321V15.3004C277.321 16.8876 277.331 16.9146 277.331 16.9146H276.312V13.0803ZM279.881 12.4397C280.984 11.404 280.091 10.0539 278.303 10.0539H277.321V12.8785H278.368C279.164 12.8785 279.525 12.7743 279.881 12.4397Z" fill="#002856"></path><path d="M183.815 16.4737C188.363 16.4737 192.051 12.7859 192.051 8.23683C192.051 3.68775 188.363 0 183.815 0C179.266 0 175.579 3.68775 175.579 8.23683C175.579 12.7859 179.266 16.4737 183.815 16.4737Z" fill="#F15D22"></path><path d="M0 95.0691V78.2999H5.06764L8.1104 89.7387L11.119 78.2999H16.198V95.0691H13.0521V81.8683L9.72332 95.0691H6.46319L3.14584 81.8683V95.0691H0Z" fill="#F15D22"></path><path d="M21.9405 86.6278L19.0235 86.1013C19.3515 84.9262 19.9158 84.0569 20.7166 83.4934C21.5173 82.9287 22.7069 82.6463 24.2856 82.6463C25.7193 82.6463 26.7869 82.8165 27.4886 83.1555C28.1902 83.4946 28.6839 83.9262 28.97 84.4478C29.2559 84.9706 29.399 85.9299 29.399 87.3257L29.3646 91.0765C29.3646 92.1444 29.4161 92.9323 29.5191 93.439C29.622 93.9471 29.8146 94.4896 30.0967 95.0691H26.9166C26.8328 94.8558 26.7298 94.5389 26.6077 94.1197C26.5544 93.9298 26.5163 93.804 26.4933 93.7424C25.9443 94.2763 25.3571 94.677 24.7317 94.9433C24.1064 95.2109 23.4391 95.3441 22.7299 95.3441C21.4792 95.3441 20.4935 95.005 19.7728 94.3256C19.0521 93.6474 18.6918 92.7892 18.6918 91.7523C18.6918 91.0655 18.8558 90.4539 19.1837 89.9163C19.5116 89.3787 19.9711 88.9668 20.5621 88.6808C21.1532 88.3947 22.0053 88.1444 23.1188 87.9311C24.6211 87.6487 25.6621 87.3861 26.2417 87.1419V86.8214C26.2417 86.2036 26.0891 85.7634 25.7841 85.5008C25.479 85.2369 24.9033 85.1062 24.0568 85.1062C23.4848 85.1062 23.0387 85.2184 22.7184 85.4428C22.3981 85.6685 22.1389 86.063 21.9405 86.6278ZM26.2417 89.2356C25.8298 89.3725 25.1778 89.5365 24.2856 89.7276C23.3934 89.9175 22.8099 90.1049 22.5354 90.2874C22.1159 90.5858 21.9062 90.9631 21.9062 91.4206C21.9062 91.8706 22.074 92.259 22.4095 92.587C22.7452 92.915 23.1721 93.079 23.6908 93.079C24.2703 93.079 24.8232 92.8879 25.3494 92.5069C25.7383 92.2171 25.9938 91.8632 26.1159 91.4428C26.1997 91.169 26.2417 90.6462 26.2417 89.8756V89.2356Z" fill="#F15D22"></path><path d="M32.4532 95.0691V78.2999H35.6677V87.1999L39.4312 82.9213H43.3892L39.2367 87.359L43.6866 95.0691H40.2204L37.1662 89.6129L35.6677 91.1801V95.0691H32.4532Z" fill="#F15D22"></path><path d="M45.5969 81.2739V78.2999H48.8113V81.2739H45.5969ZM45.5969 95.0691V82.9213H48.8113V95.0691H45.5969Z" fill="#F15D22"></path><path d="M63.1562 95.0691H59.9418V88.8694C59.9418 87.5575 59.8731 86.7092 59.7359 86.3244C59.5986 85.9385 59.3756 85.6401 59.0667 85.4268C58.7578 85.2122 58.3861 85.1062 57.9513 85.1062C57.3946 85.1062 56.8951 85.2579 56.4528 85.5637C56.0105 85.8682 55.7073 86.2727 55.5433 86.7757C55.3794 87.2788 55.2974 88.2097 55.2974 89.5673V95.0691H52.0829V82.9213H55.0686V84.7055C56.1286 83.3331 57.4633 82.6463 59.0724 82.6463C59.7816 82.6463 60.4298 82.7745 61.0171 83.0298C61.6043 83.285 62.0486 83.6105 62.3498 84.0076C62.651 84.4046 62.8607 84.8547 62.9789 85.3578C63.0971 85.8608 63.1562 86.5821 63.1562 87.5192V95.0691Z" fill="#F15D22"></path><path d="M66.1189 95.8706L69.791 96.3157C69.852 96.7436 69.9931 97.037 70.2142 97.1973C70.5192 97.4254 70.9998 97.5401 71.6556 97.5401C72.4943 97.5401 73.1232 97.4143 73.5436 97.1628C73.8248 96.9951 74.0393 96.7238 74.1836 96.3502C74.2834 96.0839 74.3328 95.5919 74.3328 94.8755V93.1024C73.371 94.4131 72.1589 95.0691 70.6947 95.0691C69.0627 95.0691 67.7701 94.3799 66.8168 92.9989C66.0693 91.9089 65.6957 90.5513 65.6957 88.9261C65.6957 86.8904 66.1857 85.3343 67.1656 84.2591C68.1457 83.1839 69.3639 82.6463 70.8205 82.6463C72.3229 82.6463 73.5621 83.306 74.5387 84.6253V82.9213H77.5473V93.8225C77.5473 95.2565 77.4289 96.328 77.1922 97.037C76.9554 97.746 76.6237 98.3034 76.1971 98.7066C75.7705 99.111 75.1996 99.4279 74.4869 99.6572C73.7742 99.8853 72.8716 100 71.7814 100C69.7223 100 68.2619 99.6474 67.4002 98.9421C66.5384 98.2368 66.1076 97.3416 66.1076 96.259C66.1076 96.1529 66.1114 96.0222 66.1189 95.8706ZM68.9903 88.7437C68.9903 90.0322 69.24 90.9754 69.7395 91.5747C70.239 92.1739 70.8549 92.4723 71.5869 92.4723C72.3722 92.4723 73.0356 92.1653 73.5769 91.5525C74.1182 90.9385 74.3895 90.0285 74.3895 88.8238C74.3895 87.5649 74.1305 86.6315 73.6114 86.0211C73.0936 85.4108 72.4376 85.1062 71.6441 85.1062C70.8739 85.1062 70.239 85.4046 69.7395 86.0039C69.24 86.6019 68.9903 87.5156 68.9903 88.7437Z" fill="#F15D22"></path><path d="M87.2821 95.0691V78.2999H98.7776V81.1371H90.668V85.1062H97.6691V87.9434H90.668V95.0691H87.2821Z" fill="#F15D22"></path><path d="M103.949 86.6278L101.032 86.1013C101.36 84.9262 101.924 84.0569 102.725 83.4934C103.526 82.9287 104.715 82.6463 106.294 82.6463C107.727 82.6463 108.795 82.8165 109.496 83.1555C110.198 83.4946 110.692 83.9262 110.978 84.4478C111.265 84.9706 111.408 85.9299 111.408 87.3257L111.373 91.0765C111.373 92.1444 111.424 92.9323 111.527 93.439C111.631 93.9471 111.823 94.4896 112.104 95.0691H108.924C108.84 94.8558 108.738 94.5389 108.616 94.1197C108.563 93.9298 108.525 93.804 108.501 93.7424C107.953 94.2763 107.366 94.677 106.739 94.9433C106.114 95.2109 105.447 95.3441 104.738 95.3441C103.488 95.3441 102.501 95.005 101.781 94.3256C101.06 93.6474 100.7 92.7892 100.7 91.7523C100.7 91.0655 100.864 90.4539 101.192 89.9163C101.52 89.3787 101.98 88.9668 102.57 88.6808C103.161 88.3947 104.013 88.1444 105.127 87.9311C106.63 87.6487 107.67 87.3861 108.25 87.1419V86.8214C108.25 86.2036 108.097 85.7634 107.792 85.5008C107.488 85.2369 106.912 85.1062 106.065 85.1062C105.493 85.1062 105.046 85.2184 104.727 85.4428C104.406 85.6685 104.146 86.063 103.949 86.6278ZM108.25 89.2356C107.838 89.3725 107.186 89.5365 106.294 89.7276C105.401 89.9175 104.818 90.1049 104.543 90.2874C104.124 90.5858 103.914 90.9631 103.914 91.4206C103.914 91.8706 104.082 92.259 104.418 92.587C104.753 92.915 105.181 93.079 105.699 93.079C106.278 93.079 106.832 92.8879 107.357 92.5069C107.747 92.2171 108.002 91.8632 108.124 91.4428C108.208 91.169 108.25 90.6462 108.25 89.8756V89.2356Z" fill="#F15D22"></path><path d="M125.168 86.5131L121.999 87.0852C121.893 86.4514 121.65 85.9755 121.273 85.6549C120.896 85.3343 120.406 85.174 119.803 85.174C119.003 85.174 118.364 85.4515 117.887 86.0039C117.411 86.5563 117.172 87.481 117.172 88.7782C117.172 90.2196 117.415 91.2368 117.898 91.8324C118.383 92.4267 119.033 92.7239 119.849 92.7239C120.459 92.7239 120.959 92.5513 121.348 92.2035C121.737 91.8571 122.012 91.2603 122.172 90.4132L125.329 90.9508C125.001 92.4008 124.372 93.4945 123.441 94.2344C122.511 94.9742 121.264 95.3441 119.701 95.3441C117.923 95.3441 116.507 94.7831 115.451 93.6622C114.395 92.5414 113.866 90.989 113.866 89.0063C113.866 87.0014 114.396 85.4391 115.457 84.322C116.516 83.2049 117.95 82.6463 119.758 82.6463C121.237 82.6463 122.414 82.9644 123.287 83.6019C124.16 84.2381 124.787 85.2086 125.168 86.5131Z" fill="#F15D22"></path><path d="M133.176 82.9213V85.4835H130.98V90.3799C130.98 91.3712 131 91.9483 131.042 92.1123C131.084 92.2763 131.179 92.4119 131.328 92.5179C131.478 92.6252 131.659 92.6782 131.872 92.6782C132.169 92.6782 132.6 92.5759 133.164 92.37L133.439 94.8632C132.692 95.1838 131.845 95.3441 130.899 95.3441C130.32 95.3441 129.797 95.2467 129.332 95.0518C128.867 94.8582 128.526 94.6067 128.309 94.2972C128.092 93.989 127.94 93.571 127.856 93.0445C127.788 92.6708 127.754 91.9162 127.754 90.7794V85.4835H126.278V82.9213H127.754V80.507L130.98 78.6315V82.9213H133.176Z" fill="#F15D22"></path><path d="M134.663 88.8238C134.663 87.756 134.926 86.7227 135.453 85.724C135.978 84.724 136.724 83.962 137.688 83.4354C138.654 82.9089 139.73 82.6463 140.92 82.6463C142.759 82.6463 144.264 83.2431 145.439 84.4367C146.613 85.6302 147.2 87.1382 147.2 88.9607C147.2 90.7991 146.608 92.3219 145.422 93.5315C144.236 94.7399 142.743 95.3441 140.944 95.3441C139.83 95.3441 138.767 95.0925 137.757 94.5895C136.746 94.0852 135.978 93.3478 135.453 92.3762C134.926 91.4033 134.663 90.2196 134.663 88.8238ZM137.957 88.9952C137.957 90.1999 138.243 91.1234 138.815 91.7634C139.388 92.4045 140.093 92.7239 140.931 92.7239C141.771 92.7239 142.474 92.4045 143.042 91.7634C143.611 91.1234 143.894 90.1925 143.894 88.973C143.894 87.7831 143.611 86.867 143.042 86.227C142.474 85.5859 141.771 85.2665 140.931 85.2665C140.093 85.2665 139.388 85.5859 138.815 86.227C138.243 86.867 137.957 87.7905 137.957 88.9952Z" fill="#F15D22"></path><path d="M152.794 95.0691H149.58V82.9213H152.565V84.6488C153.077 83.8325 153.537 83.2949 153.944 83.0359C154.352 82.7758 154.815 82.6463 155.334 82.6463C156.066 82.6463 156.771 82.8485 157.45 83.253L156.455 86.0556C155.914 85.7042 155.41 85.5291 154.945 85.5291C154.495 85.5291 154.114 85.6524 153.8 85.9015C153.489 86.1494 153.242 86.5969 153.063 87.2455C152.884 87.8929 152.794 89.2504 152.794 91.317V95.0691Z" fill="#F15D22"></path><path d="M158.834 81.2739V78.2999H162.048V81.2739H158.834ZM158.834 95.0691V82.9213H162.048V95.0691H158.834Z" fill="#F15D22"></path><path d="M172.379 91.2036L175.581 91.7412C175.169 92.915 174.519 93.8089 173.631 94.423C172.742 95.037 171.631 95.3441 170.296 95.3441C168.184 95.3441 166.62 94.6536 165.607 93.2738C164.805 92.1678 164.406 90.772 164.406 89.0864C164.406 87.0729 164.931 85.4971 165.984 84.3565C167.036 83.216 168.368 82.6463 169.977 82.6463C171.783 82.6463 173.21 83.2431 174.254 84.4367C175.3 85.6302 175.799 87.4588 175.753 89.9224H167.699C167.723 90.8756 167.982 91.6166 168.477 92.1468C168.973 92.677 169.591 92.9421 170.331 92.9421C170.834 92.9421 171.258 92.804 171.601 92.5303C171.943 92.2553 172.204 91.8127 172.379 91.2036ZM172.561 87.9545C172.539 87.0236 172.298 86.3171 171.841 85.8325C171.384 85.3479 170.826 85.1062 170.17 85.1062C169.469 85.1062 168.889 85.3614 168.432 85.8719C167.974 86.3836 167.75 87.0778 167.757 87.9545H172.561Z" fill="#F15D22"></path><path d="M177.24 91.6031L180.466 91.1111C180.603 91.7375 180.882 92.2109 181.301 92.5352C181.72 92.8595 182.308 93.0223 183.063 93.0223C183.894 93.0223 184.519 92.8694 184.938 92.5648C185.221 92.3503 185.362 92.0642 185.362 91.7066C185.362 91.4625 185.286 91.2603 185.133 91.1C184.973 90.9471 184.615 90.8065 184.058 90.677C181.465 90.1049 179.821 89.5821 179.127 89.1099C178.166 88.4539 177.687 87.5427 177.687 86.3762C177.687 85.3232 178.102 84.4391 178.933 83.7215C179.764 83.0051 181.053 82.6463 182.8 82.6463C184.462 82.6463 185.698 82.9176 186.505 83.4589C187.314 84.0002 187.87 84.8004 188.176 85.8608L185.144 86.4218C185.015 85.9484 184.769 85.5859 184.407 85.3343C184.044 85.0828 183.528 84.957 182.857 84.957C182.01 84.957 181.404 85.0754 181.038 85.3121C180.794 85.4798 180.672 85.6968 180.672 85.9644C180.672 86.1925 180.778 86.3873 180.993 86.5476C181.282 86.7609 182.282 87.0618 183.995 87.4514C185.706 87.8398 186.902 88.317 187.581 88.8805C188.253 89.4526 188.588 90.2492 188.588 91.2714C188.588 92.3848 188.123 93.3416 187.192 94.1431C186.261 94.9434 184.885 95.3441 183.063 95.3441C181.408 95.3441 180.097 95.0087 179.133 94.3367C178.169 93.6659 177.538 92.7547 177.24 91.6031Z" fill="#F15D22"></path><path d="M197.076 89.6129L200.371 89.2923C200.568 90.3984 200.97 91.2109 201.577 91.7288C202.183 92.2479 203.001 92.5069 204.031 92.5069C205.122 92.5069 205.943 92.2763 206.495 91.8151C207.049 91.354 207.325 90.8139 207.325 90.1962C207.325 89.8004 207.209 89.4625 206.976 89.1838C206.744 88.9052 206.338 88.6635 205.758 88.4576C205.362 88.3207 204.458 88.0766 203.047 87.7252C201.232 87.2751 199.959 86.7227 199.227 86.0667C198.197 85.1444 197.682 84.0187 197.682 82.6919C197.682 81.8387 197.925 81.0397 198.408 80.2961C198.892 79.5526 199.59 78.9854 200.502 78.597C201.413 78.2086 202.513 78.0138 203.802 78.0138C205.907 78.0138 207.492 78.4749 208.555 79.3973C209.619 80.3208 210.177 81.5526 210.23 83.0926L206.844 83.2406C206.7 82.38 206.389 81.7597 205.912 81.3824C205.436 81.0051 204.721 80.8165 203.768 80.8165C202.784 80.8165 202.013 81.0187 201.457 81.4219C201.098 81.6821 200.92 82.0285 200.92 82.4638C200.92 82.8596 201.087 83.1999 201.423 83.4811C201.849 83.8399 202.886 84.2135 204.534 84.6019C206.181 84.9915 207.399 85.3935 208.188 85.809C208.979 86.2246 209.596 86.793 210.042 87.5143C210.488 88.2344 210.711 89.1246 210.711 90.1851C210.711 91.1456 210.445 92.0457 209.911 92.8842C209.377 93.7239 208.622 94.3465 207.646 94.7547C206.669 95.1628 205.453 95.3675 203.996 95.3675C201.876 95.3675 200.249 94.8768 199.112 93.8965C197.975 92.9175 197.297 91.4896 197.076 89.6129Z" fill="#F15D22"></path><path d="M213.297 82.9213H216.26V84.5797C217.319 83.2912 218.582 82.6463 220.046 82.6463C220.823 82.6463 221.499 82.8066 222.071 83.1272C222.642 83.4478 223.112 83.9311 223.478 84.5797C224.012 83.9311 224.588 83.4478 225.205 83.1272C225.823 82.8066 226.483 82.6463 227.184 82.6463C228.076 82.6463 228.832 82.8276 229.448 83.1901C230.066 83.5514 230.528 84.084 230.833 84.7856C231.054 85.3035 231.165 86.1432 231.165 87.3022V95.0691H227.95V88.1259C227.95 86.9212 227.839 86.1432 227.618 85.7918C227.321 85.3343 226.864 85.1062 226.246 85.1062C225.796 85.1062 225.373 85.2431 224.976 85.518C224.579 85.7918 224.294 86.195 224.118 86.7239C223.943 87.2542 223.855 88.0914 223.855 89.2356V95.0691H220.641V88.412C220.641 87.2295 220.583 86.4675 220.469 86.1235C220.355 85.7807 220.177 85.5254 219.937 85.3578C219.696 85.1901 219.371 85.1062 218.959 85.1062C218.463 85.1062 218.017 85.2394 217.621 85.5057C217.224 85.7733 216.94 86.158 216.768 86.6611C216.596 87.1654 216.511 88.0001 216.511 89.1666V95.0691H213.297V82.9213Z" fill="#F15D22"></path><path d="M236.77 86.6278L233.853 86.1013C234.181 84.9262 234.745 84.0569 235.546 83.4934C236.347 82.9287 237.537 82.6463 239.115 82.6463C240.549 82.6463 241.616 82.8165 242.317 83.1555C243.019 83.4946 243.513 83.9262 243.8 84.4478C244.086 84.9706 244.229 85.9299 244.229 87.3257L244.194 91.0765C244.194 92.1444 244.246 92.9323 244.348 93.439C244.452 93.9471 244.644 94.4896 244.927 95.0691H241.747C241.663 94.8558 241.559 94.5389 241.437 94.1197C241.384 93.9298 241.346 93.804 241.322 93.7424C240.774 94.2763 240.187 94.677 239.562 94.9433C238.936 95.2109 238.268 95.3441 237.559 95.3441C236.309 95.3441 235.322 95.005 234.602 94.3256C233.881 93.6474 233.521 92.7892 233.521 91.7523C233.521 91.0655 233.685 90.4539 234.013 89.9163C234.341 89.3787 234.801 88.9668 235.392 88.6808C235.982 88.3947 236.835 88.1444 237.948 87.9311C239.451 87.6487 240.491 87.3861 241.071 87.1419V86.8214C241.071 86.2036 240.918 85.7634 240.613 85.5008C240.309 85.2369 239.733 85.1062 238.886 85.1062C238.314 85.1062 237.869 85.2184 237.548 85.4428C237.227 85.6685 236.969 86.063 236.77 86.6278ZM241.071 89.2356C240.659 89.3725 240.007 89.5365 239.115 89.7276C238.223 89.9175 237.639 90.1049 237.364 90.2874C236.945 90.5858 236.736 90.9631 236.736 91.4206C236.736 91.8706 236.903 92.259 237.239 92.587C237.575 92.915 238.002 93.079 238.52 93.079C239.099 93.079 239.653 92.8879 240.179 92.5069C240.568 92.2171 240.823 91.8632 240.945 91.4428C241.029 91.169 241.071 90.6462 241.071 89.8756V89.2356Z" fill="#F15D22"></path><path d="M250.474 95.0691H247.259V82.9213H250.246V84.6488C250.756 83.8325 251.216 83.2949 251.624 83.0359C252.032 82.7758 252.495 82.6463 253.014 82.6463C253.746 82.6463 254.452 82.8485 255.13 83.253L254.135 86.0556C253.594 85.7042 253.09 85.5291 252.624 85.5291C252.174 85.5291 251.793 85.6524 251.481 85.9015C251.168 86.1494 250.923 86.5969 250.743 87.2455C250.564 87.8929 250.474 89.2504 250.474 91.317V95.0691Z" fill="#F15D22"></path><path d="M262.085 82.9213V85.4835H259.888V90.3799C259.888 91.3712 259.909 91.9483 259.952 92.1123C259.994 92.2763 260.089 92.4119 260.237 92.5179C260.386 92.6252 260.568 92.6782 260.781 92.6782C261.078 92.6782 261.51 92.5759 262.073 92.37L262.348 94.8632C261.601 95.1838 260.754 95.3441 259.809 95.3441C259.228 95.3441 258.707 95.2467 258.242 95.0518C257.776 94.8582 257.436 94.6067 257.217 94.2972C257 93.989 256.85 93.571 256.766 93.0445C256.697 92.6708 256.663 91.9162 256.663 90.7794V85.4835H255.188V82.9213H256.663V80.507L259.888 78.6315V82.9213H262.085Z" fill="#F15D22"></path><path d="M271.35 91.2036L274.554 91.7412C274.142 92.915 273.492 93.8089 272.603 94.423C271.715 95.037 270.603 95.3441 269.269 95.3441C267.157 95.3441 265.593 94.6536 264.579 93.2738C263.778 92.1678 263.378 90.772 263.378 89.0864C263.378 87.0729 263.904 85.4971 264.956 84.3565C266.009 83.216 267.339 82.6463 268.948 82.6463C270.756 82.6463 272.183 83.2431 273.227 84.4367C274.271 85.6302 274.771 87.4588 274.725 89.9224H266.672C266.696 90.8756 266.955 91.6166 267.45 92.1468C267.946 92.677 268.564 92.9421 269.304 92.9421C269.807 92.9421 270.23 92.804 270.572 92.5303C270.916 92.2553 271.175 91.8127 271.35 91.2036ZM271.534 87.9545C271.511 87.0236 271.27 86.3171 270.813 85.8325C270.355 85.3479 269.799 85.1062 269.143 85.1062C268.442 85.1062 267.862 85.3614 267.405 85.8719C266.947 86.3836 266.722 87.0778 266.729 87.9545H271.534Z" fill="#F15D22"></path><path d="M280.422 95.0691H277.207V82.9213H280.194V84.6488C280.704 83.8325 281.164 83.2949 281.572 83.0359C281.98 82.7758 282.443 82.6463 282.962 82.6463C283.694 82.6463 284.4 82.8485 285.078 83.253L284.083 86.0556C283.541 85.7042 283.038 85.5291 282.572 85.5291C282.123 85.5291 281.741 85.6524 281.429 85.9015C281.116 86.1494 280.871 86.5969 280.691 87.2455C280.512 87.8929 280.422 89.2504 280.422 91.317V95.0691Z" fill="#F15D22"></path></svg>