<svg width="30" height="30" viewBox="0 0 30 30" fill="none" xmlns="http://www.w3.org/2000/svg" class="custom-loginpage-facebookicon"><path d="M27.3398 1.13202H2.66249C1.81723 1.13202 1.13202 1.81723 1.13202 2.66249V27.3398C1.13202 28.1851 1.81723 28.8703 2.66249 28.8703H27.3398C28.1851 28.8703 28.8703 28.1851 28.8703 27.3398V2.66249C28.8703 1.81723 28.1851 1.13202 27.3398 1.13202Z" fill="#3D5A98"></path><path d="M20.2688 28.868V18.1266H23.8735L24.4125 13.9406H20.2688V11.2687C20.2688 10.057 20.6063 9.22968 22.343 9.22968H24.5602V5.47968C23.4865 5.36778 22.4076 5.31458 21.3281 5.3203C18.136 5.3203 15.9375 7.26561 15.9375 10.8539V13.9406H12.3328V18.1266H15.9375V28.868H20.2688Z" fill="white"></path></svg>