<svg width="18" height="18" viewBox="0 0 18 18" fill="none" xmlns="http://www.w3.org/2000/svg">
<path d="M6.59985 12.1997C6.59985 12.4119 6.51556 12.6154 6.36554 12.7654C6.21551 12.9154 6.01203 12.9997 5.79986 12.9997C5.58769 12.9997 5.38421 12.9154 5.23419 12.7654C5.08416 12.6154 4.99988 12.4119 4.99988 12.1997C4.99988 11.9875 5.08416 11.7841 5.23419 11.634C5.38421 11.484 5.58769 11.3997 5.79986 11.3997C6.01203 11.3997 6.21551 11.484 6.36554 11.634C6.51556 11.7841 6.59985 11.9875 6.59985 12.1997ZM9.79979 12.1997C9.79979 12.4119 9.7155 12.6154 9.56548 12.7654C9.41545 12.9154 9.21197 12.9997 8.9998 12.9997C8.78763 12.9997 8.58415 12.9154 8.43413 12.7654C8.2841 12.6154 8.19982 12.4119 8.19982 12.1997C8.19982 11.9875 8.2841 11.7841 8.43413 11.634C8.58415 11.484 8.78763 11.3997 8.9998 11.3997C9.21197 11.3997 9.41545 11.484 9.56548 11.634C9.7155 11.7841 9.79979 11.9875 9.79979 12.1997ZM12.9997 12.1997C12.9997 12.4119 12.9154 12.6154 12.7654 12.7654C12.6154 12.9154 12.4119 12.9997 12.1997 12.9997C11.9876 12.9997 11.7841 12.9154 11.6341 12.7654C11.484 12.6154 11.3998 12.4119 11.3998 12.1997C11.3998 11.9875 11.484 11.7841 11.6341 11.634C11.7841 11.484 11.9876 11.3997 12.1997 11.3997C12.4119 11.3997 12.6154 11.484 12.7654 11.634C12.9154 11.7841 12.9997 11.9875 12.9997 12.1997Z" fill="#F15D22"/>
<path d="M4.19994 7.39981V5.79984C4.19994 5.52785 4.22234 5.25985 4.26634 4.99986M13.7998 7.39981V5.79984C13.7998 4.82485 13.503 3.87296 12.9487 3.07085C12.3944 2.26873 11.609 1.65443 10.697 1.30969C9.78501 0.964954 8.78964 0.906126 7.84337 1.14104C6.8971 1.37595 6.04481 1.89346 5.39992 2.6247M8.19987 16.9996H5.79991C3.53755 16.9996 2.40557 16.9996 1.70319 16.2964C1 15.5941 1 14.4621 1 12.1997C1 9.93737 1 8.80539 1.70319 8.103C2.40557 7.39981 3.53755 7.39981 5.79991 7.39981H12.1998C14.4621 7.39981 15.5941 7.39981 16.2965 8.103C16.9997 8.80539 16.9997 9.93737 16.9997 12.1997C16.9997 14.4621 16.9997 15.5941 16.2965 16.2964C15.5941 16.9996 14.4621 16.9996 12.1998 16.9996H11.3998" stroke="#F15D22" stroke-width="1.5" stroke-linecap="round"/>
</svg>

