<svg width="30" height="30" viewBox="0 0 30 30" fill="none" xmlns="http://www.w3.org/2000/svg" class="custom-loginpage-likedinicon"><g clip-path="url(#clip0_2_13047)"><path d="M27.1875 0.703111H2.8125C2.25945 0.697483 1.72675 0.911481 1.33129 1.29815C0.935838 1.68482 0.709925 2.21257 0.703125 2.76561V27.239C0.711154 27.7913 0.937608 28.3178 1.33293 28.7035C1.72825 29.0891 2.26025 29.3025 2.8125 29.2969H27.1875C27.7406 29.3012 28.2729 29.0865 28.6682 28.6996C29.0634 28.3127 29.2895 27.7851 29.2969 27.232V2.75858C29.287 2.20716 29.0599 1.68192 28.6649 1.29703C28.2699 0.912137 27.739 0.6987 27.1875 0.703111Z" fill="#0076B2"></path><path d="M4.93595 11.4211H9.18048V25.0781H4.93595V11.4211ZM7.05939 4.62421C7.54622 4.62421 8.0221 4.7686 8.42685 5.03911C8.8316 5.30963 9.14703 5.69411 9.33322 6.14393C9.51941 6.59374 9.56801 7.08867 9.47287 7.56611C9.37772 8.04355 9.14311 8.48204 8.7987 8.82612C8.4543 9.17019 8.01558 9.40439 7.53805 9.49908C7.06053 9.59377 6.56564 9.5447 6.116 9.35808C5.66637 9.17146 5.28218 8.85567 5.01205 8.45066C4.74192 8.04565 4.59799 7.56963 4.59845 7.0828C4.59907 6.43053 4.85862 5.80518 5.32007 5.34417C5.78152 4.88316 6.40711 4.62421 7.05939 4.62421ZM11.843 11.4211H15.9117V13.2961H15.968C16.5352 12.2226 17.918 11.0906 19.9828 11.0906C24.2813 11.0812 25.0781 13.9101 25.0781 17.5781V25.0781H20.8336V18.4336C20.8336 16.8516 20.8055 14.8148 18.6281 14.8148C16.4508 14.8148 16.0805 16.5398 16.0805 18.3305V25.0781H11.843V11.4211Z" fill="white"></path></g><defs><clipPath id="clip0_2_13047"><rect width="30" height="30" fill="white"></rect></clipPath></defs></svg>