<svg width="16" height="16" viewBox="0 0 16 16" fill="none" xmlns="http://www.w3.org/2000/svg"><path fill-rule="evenodd" clip-rule="evenodd" d="M6.0696 10.3957C6.49374 10.3958 6.90047 10.5643 7.20033 10.8643L8 11.664L8.79967 10.8643C9.09953 10.5643 9.50626 10.3958 9.9304 10.3957H13.1483C13.6832 10.3957 14.2027 10.5746 14.6243 10.9038C15.046 11.2329 15.3455 11.6936 15.4753 12.2125L15.9727 14.2005C16.0002 14.303 16.007 14.41 15.9927 14.5152C15.9785 14.6204 15.9434 14.7217 15.8895 14.8132C15.8357 14.9047 15.7642 14.9846 15.6791 15.0482C15.5941 15.1118 15.4973 15.1578 15.3943 15.1835C15.2913 15.2093 15.1842 15.2142 15.0792 15.1982C14.9743 15.1821 14.8736 15.1453 14.783 15.0899C14.6925 15.0345 14.6139 14.9616 14.5517 14.8755C14.4896 14.7894 14.4453 14.6918 14.4213 14.5883L13.9247 12.6012C13.8816 12.4281 13.7818 12.2744 13.6412 12.1646C13.5007 12.0548 13.3274 11.9951 13.1491 11.995H9.9304L9.13073 12.7947C8.83081 13.0945 8.42409 13.2629 8 13.2629C7.57591 13.2629 7.16919 13.0945 6.86927 12.7947L6.0696 11.995H2.85174C2.67336 11.9951 2.50013 12.0548 2.35957 12.1646C2.21902 12.2744 2.11923 12.4281 2.07606 12.6012L1.57867 14.5883C1.55469 14.6918 1.51035 14.7894 1.44825 14.8755C1.38615 14.9616 1.30752 15.0345 1.21695 15.0899C1.12639 15.1453 1.0257 15.1821 0.920754 15.1982C0.815811 15.2142 0.708717 15.2093 0.60572 15.1835C0.502722 15.1578 0.405883 15.1118 0.320852 15.0482C0.23582 14.9846 0.164298 14.9047 0.110458 14.8132C0.0566173 14.7217 0.0215364 14.6204 0.0072615 14.5152C-0.00701343 14.41 -0.00019676 14.303 0.0273141 14.2005L0.523908 12.2125C0.653713 11.6936 0.953226 11.2329 1.37485 10.9038C1.79648 10.5746 2.31603 10.3957 2.85094 10.3957H6.0696ZM8 0C8.62694 0 9.32825 0.151937 9.90321 0.31267C11.2331 0.682916 11.9983 1.9272 11.9983 3.19627V6.39974C11.9983 7.66961 11.2331 8.9131 9.90321 9.28334C9.32825 9.44327 8.62694 9.59601 8 9.59601C7.37306 9.59601 6.67175 9.44407 6.09679 9.28334C4.76694 8.9131 4.00166 7.66961 4.00166 6.39974V3.19627C4.00166 1.9272 4.76694 0.682916 6.09679 0.31267C6.67175 0.152737 7.37306 0 8 0ZM8 1.59934C7.59297 1.59934 7.05879 1.70489 6.52621 1.85363C5.99203 2.00237 5.601 2.53095 5.601 3.19627V6.39974C5.601 7.06506 5.99203 7.59364 6.52621 7.74318C7.05879 7.89112 7.59297 7.99668 8 7.99668C8.40703 7.99668 8.94121 7.89112 9.47379 7.74238C10.008 7.59364 10.399 7.06506 10.399 6.39974V3.19627C10.399 2.53095 10.008 2.00237 9.47379 1.85283C8.94121 1.70569 8.40783 1.59934 8 1.59934Z" fill="#F15D22"></path></svg>