<svg width="32" height="32" viewBox="0 0 32 32" fill="none" xmlns="http://www.w3.org/2000/svg">
<path fill-rule="evenodd" clip-rule="evenodd" d="M24 18C20.6863 18 18 20.6863 18 24C18 27.3137 20.6863 30 24 30C27.3137 30 30 27.3137 30 24C30 20.6863 27.3137 18 24 18ZM16 24C16 19.5817 19.5817 16 24 16C28.4183 16 32 19.5817 32 24C32 28.4183 28.4183 32 24 32C19.5817 32 16 28.4183 16 24Z" fill="#FFF"/>
<path fill-rule="evenodd" clip-rule="evenodd" d="M20 24C20 23.4477 20.4477 23 21 23H27C27.5523 23 28 23.4477 28 24C28 24.5523 27.5523 25 27 25H21C20.4477 25 20 24.5523 20 24Z" fill="#FFF"/>
<path fill-rule="evenodd" clip-rule="evenodd" d="M0 11C0 9.34772 1.34772 8 3 8H25C26.6523 8 28 9.34772 28 11V17.7C28 18.2523 27.5523 18.7 27 18.7C26.4477 18.7 26 18.2523 26 17.7V11C26 10.4523 25.5477 10 25 10H3C2.45228 10 2 10.4523 2 11V21C2 21.5477 2.45228 22 3 22H9.2C9.42644 22 9.67445 21.9113 9.89289 21.6929L11.8929 19.6929C13.0834 18.5024 14.9166 18.5024 16.1071 19.6929L17.9071 21.4929C18.2976 21.8834 18.2976 22.5166 17.9071 22.9071C17.5166 23.2976 16.8834 23.2976 16.4929 22.9071L14.6929 21.1071C14.2834 20.6976 13.7166 20.6976 13.3071 21.1071L11.3071 23.1071C10.7256 23.6887 9.97356 24 9.2 24H3C1.34772 24 0 22.6523 0 21V11Z" fill="#FFF"/>
<path fill-rule="evenodd" clip-rule="evenodd" d="M7 14C5.89543 14 5 14.8954 5 16C5 17.1046 5.89543 18 7 18C8.10457 18 9 17.1046 9 16C9 14.8954 8.10457 14 7 14ZM3 16C3 13.7909 4.79086 12 7 12C9.20914 12 11 13.7909 11 16C11 18.2091 9.20914 20 7 20C4.79086 20 3 18.2091 3 16Z" fill="#FFF"/>
<path fill-rule="evenodd" clip-rule="evenodd" d="M21 14C19.8523 14 19 14.8523 19 16C19 16.7427 19.4082 17.405 19.9856 17.7258C20.4684 17.9941 20.6424 18.6029 20.3742 19.0856C20.1059 19.5684 19.4971 19.7424 19.0144 19.4742C17.7918 18.795 17 17.4573 17 16C17 13.7477 18.7477 12 21 12C23.2523 12 25 13.7477 25 16C25 16.5633 24.8566 16.9929 24.7566 17.2925C24.7539 17.3005 24.7513 17.3084 24.7487 17.3162C24.574 17.8402 24.0077 18.1233 23.4838 17.9487C22.9598 17.774 22.6767 17.2077 22.8513 16.6838C22.9512 16.3842 23 16.2216 23 16C23 14.8523 22.1477 14 21 14Z" fill="#FFF"/>
</svg>
