<svg width="40" height="40" viewBox="0 0 40 40" fill="none" xmlns="http://www.w3.org/2000/svg">
<g clip-path="url(#clip0_1_367)">
<g clip-path="url(#clip1_1_367)">
<g clip-path="url(#clip2_1_367)">
<path d="M28 25H30V30H28V25ZM24 20H26V30H24V20ZM15 30C13.6744 29.9984 12.4036 29.4711 11.4662 28.5338C10.5289 27.5964 10.0016 26.3256 10 25H12C12 25.5933 12.1759 26.1734 12.5056 26.6667C12.8352 27.1601 13.3038 27.5446 13.8519 27.7716C14.4001 27.9987 15.0033 28.0581 15.5853 27.9424C16.1672 27.8266 16.7018 27.5409 17.1213 27.1213C17.5409 26.7018 17.8266 26.1672 17.9424 25.5853C18.0581 25.0033 17.9987 24.4001 17.7716 23.8519C17.5446 23.3038 17.1601 22.8352 16.6667 22.5056C16.1734 22.1759 15.5933 22 15 22V20C16.3261 20 17.5979 20.5268 18.5355 21.4645C19.4732 22.4021 20 23.6739 20 25C20 26.3261 19.4732 27.5979 18.5355 28.5355C17.5979 29.4732 16.3261 30 15 30Z" fill="#545454"/>
<path d="M32 6H8C7.46973 6.00053 6.96133 6.21141 6.58637 6.58637C6.21141 6.96133 6.00053 7.46973 6 8V32C6.00053 32.5303 6.21141 33.0387 6.58637 33.4136C6.96133 33.7886 7.46973 33.9995 8 34H32C32.5302 33.9992 33.0384 33.7882 33.4133 33.4133C33.7882 33.0384 33.9992 32.5302 34 32V8C33.9995 7.46973 33.7886 6.96133 33.4136 6.58637C33.0387 6.21141 32.5303 6.00053 32 6ZM32 15H18V8H32V15ZM16 8V15H8V8H16ZM8 32V17H32L32.002 32H8Z" fill="#545454"/>
</g>
</g>
</g>
<defs>
<clipPath id="clip0_1_367">
<rect width="32" height="32" fill="white" transform="translate(4 4)"/>
</clipPath>
<clipPath id="clip1_1_367">
<rect width="32" height="32" fill="white" transform="translate(4 4)"/>
</clipPath>
<clipPath id="clip2_1_367">
<rect width="32" height="32" fill="white" transform="translate(4 4)"/>
</clipPath>
</defs>
</svg>
