<svg width="40" height="40" viewBox="0 0 40 40" fill="none" xmlns="http://www.w3.org/2000/svg">
<g clip-path="url(#clip0_1_357)">
<g clip-path="url(#clip1_1_357)">
<path d="M10 28C10.3956 28 10.7822 28.1173 11.1111 28.3371C11.44 28.5568 11.6964 28.8692 11.8478 29.2346C11.9991 29.6001 12.0387 30.0022 11.9616 30.3902C11.8844 30.7781 11.6939 31.1345 11.4142 31.4142C11.1345 31.6939 10.7781 31.8844 10.3902 31.9616C10.0022 32.0387 9.60009 31.9991 9.23463 31.8478C8.86918 31.6964 8.55683 31.44 8.33706 31.1111C8.1173 30.7822 8 30.3956 8 30C8 29.4696 8.21072 28.9609 8.58579 28.5858C8.96086 28.2107 9.46957 28 10 28ZM10 26C9.20888 26 8.43552 26.2346 7.77772 26.6741C7.11992 27.1136 6.60723 27.7384 6.30448 28.4693C6.00173 29.2002 5.92252 30.0044 6.07686 30.7804C6.2312 31.5563 6.61216 32.269 7.17157 32.8284C7.73098 33.3878 8.44372 33.7688 9.21964 33.9231C9.99556 34.0775 10.7998 33.9983 11.5307 33.6955C12.2616 33.3928 12.8864 32.8801 13.3259 32.2223C13.7654 31.5645 14 30.7911 14 30C14 28.9391 13.5786 27.9217 12.8284 27.1716C12.0783 26.4214 11.0609 26 10 26ZM20 8C20.3956 8 20.7822 8.1173 21.1111 8.33706C21.44 8.55682 21.6964 8.86918 21.8478 9.23463C21.9991 9.60009 22.0387 10.0022 21.9616 10.3902C21.8844 10.7781 21.6939 11.1345 21.4142 11.4142C21.1345 11.6939 20.7781 11.8844 20.3902 11.9616C20.0022 12.0387 19.6001 11.9991 19.2346 11.8478C18.8692 11.6964 18.5568 11.44 18.3371 11.1111C18.1173 10.7822 18 10.3956 18 10C18 9.46957 18.2107 8.96086 18.5858 8.58579C18.9609 8.21071 19.4696 8 20 8ZM20 6C19.2089 6 18.4355 6.2346 17.7777 6.67412C17.1199 7.11365 16.6072 7.73836 16.3045 8.46927C16.0017 9.20017 15.9225 10.0044 16.0769 10.7804C16.2312 11.5563 16.6122 12.269 17.1716 12.8284C17.731 13.3878 18.4437 13.7688 19.2196 13.9231C19.9956 14.0775 20.7998 13.9983 21.5307 13.6955C22.2616 13.3928 22.8864 12.8801 23.3259 12.2223C23.7654 11.5645 24 10.7911 24 10C24 8.93913 23.5786 7.92172 22.8284 7.17157C22.0783 6.42143 21.0609 6 20 6ZM30 8C30.3956 8 30.7822 8.1173 31.1111 8.33706C31.44 8.55682 31.6964 8.86918 31.8478 9.23463C31.9991 9.60009 32.0387 10.0022 31.9616 10.3902C31.8844 10.7781 31.6939 11.1345 31.4142 11.4142C31.1345 11.6939 30.7781 11.8844 30.3902 11.9616C30.0022 12.0387 29.6001 11.9991 29.2346 11.8478C28.8692 11.6964 28.5568 11.44 28.3371 11.1111C28.1173 10.7822 28 10.3956 28 10C28 9.46957 28.2107 8.96086 28.5858 8.58579C28.9609 8.21071 29.4696 8 30 8ZM30 6C29.2089 6 28.4355 6.2346 27.7777 6.67412C27.1199 7.11365 26.6072 7.73836 26.3045 8.46927C26.0017 9.20017 25.9225 10.0044 26.0769 10.7804C26.2312 11.5563 26.6122 12.269 27.1716 12.8284C27.731 13.3878 28.4437 13.7688 29.2196 13.9231C29.9956 14.0775 30.7998 13.9983 31.5307 13.6955C32.2616 13.3928 32.8864 12.8801 33.3259 12.2223C33.7654 11.5645 34 10.7911 34 10C34 8.93913 33.5786 7.92172 32.8284 7.17157C32.0783 6.42143 31.0609 6 30 6ZM22 28V32H18V28H22ZM24 26H16V34H24V26Z" fill="#545454"/>
<path d="M31 26.14V21C31 20.4696 30.7893 19.9609 30.4142 19.5858C30.0391 19.2107 29.5304 19 29 19H11V14H14V6H6V14H9V19C9 19.5304 9.21071 20.0391 9.58579 20.4142C9.96086 20.7893 10.4696 21 11 21H29V26.14C28.0573 26.3834 27.2358 26.9622 26.6894 27.768C26.143 28.5738 25.9092 29.5512 26.0319 30.517C26.1546 31.4828 26.6253 32.3707 27.3558 33.0143C28.0863 33.6579 29.0264 34.013 30 34.013C30.9736 34.013 31.9137 33.6579 32.6442 33.0143C33.3747 32.3707 33.8454 31.4828 33.9681 30.517C34.0908 29.5512 33.857 28.5738 33.3106 27.768C32.7642 26.9622 31.9427 26.3834 31 26.14ZM8 8H12V12H8V8ZM30 32C29.6044 32 29.2178 31.8827 28.8889 31.6629C28.56 31.4432 28.3036 31.1308 28.1522 30.7654C28.0009 30.3999 27.9613 29.9978 28.0384 29.6098C28.1156 29.2219 28.3061 28.8655 28.5858 28.5858C28.8655 28.3061 29.2219 28.1156 29.6098 28.0384C29.9978 27.9613 30.3999 28.0009 30.7654 28.1522C31.1308 28.3036 31.4432 28.56 31.6629 28.8889C31.8827 29.2178 32 29.6044 32 30C32 30.5304 31.7893 31.0391 31.4142 31.4142C31.0391 31.7893 30.5304 32 30 32Z" fill="#545454"/>
</g>
</g>
<defs>
<clipPath id="clip0_1_357">
<rect width="32" height="32" fill="white" transform="translate(4 4)"/>
</clipPath>
<clipPath id="clip1_1_357">
<rect width="32" height="32" fill="white" transform="translate(4 4)"/>
</clipPath>
</defs>
</svg>
