<svg width="40" height="40" viewBox="0 0 40 40" fill="none" xmlns="http://www.w3.org/2000/svg">
<g clip-path="url(#clip0_1_378)">
<path d="M34 23H30V19H28V28H12V12H21V10H17V6H15V10H12C11.4697 10.0005 10.9613 10.2114 10.5864 10.5864C10.2114 10.9613 10.0005 11.4697 10 12V15H6V17H10V23H6V25H10V28C10.0005 28.5303 10.2114 29.0387 10.5864 29.4136C10.9613 29.7886 11.4697 29.9995 12 30H15V34H17V30H23V34H25V30H28C28.5302 29.9992 29.0384 29.7882 29.4133 29.4133C29.7882 29.0384 29.9992 28.5302 30 28V25H34V23Z" fill="#FFF"/>
<path d="M30 6C28.9395 6.00106 27.9227 6.42283 27.1727 7.17274C26.4228 7.92266 26.0011 8.93946 26 10C26.0037 10.7121 26.1996 11.41 26.567 12.02L23.586 15H15V25H25V16.414L27.98 13.434C28.5901 13.8011 29.288 13.9966 30 14C31.0609 14 32.0783 13.5786 32.8284 12.8284C33.5786 12.0783 34 11.0609 34 10C34 8.93913 33.5786 7.92172 32.8284 7.17157C32.0783 6.42143 31.0609 6 30 6ZM23 23H17V17H23V23ZM30 12C29.6044 12 29.2178 11.8827 28.8889 11.6629C28.56 11.4432 28.3036 11.1308 28.1522 10.7654C28.0009 10.3999 27.9613 9.99778 28.0384 9.60982C28.1156 9.22186 28.3061 8.86549 28.5858 8.58579C28.8655 8.30608 29.2219 8.1156 29.6098 8.03843C29.9978 7.96126 30.3999 8.00087 30.7654 8.15224C31.1308 8.30362 31.4432 8.55996 31.6629 8.88886C31.8827 9.21776 32 9.60444 32 10C31.9995 10.5303 31.7886 11.0387 31.4136 11.4136C31.0387 11.7886 30.5303 11.9995 30 12Z" fill="#FFF"/>
</g>
<defs>
<clipPath id="clip0_1_378">
<rect width="32" height="32" fill="white" transform="translate(4 4)"/>
</clipPath>
</defs>
</svg>
