<svg width="40" height="40" viewBox="0 0 40 40" fill="none" xmlns="http://www.w3.org/2000/svg">
<g clip-path="url(#clip0_1_348)">
<path d="M31.9988 7.99956C31.9989 8.63566 31.8472 9.26262 31.5562 9.82835C31.2652 10.3941 30.8433 10.8822 30.3256 11.2522C29.8079 11.6223 29.2092 11.8635 28.5795 11.9558C27.9497 12.0482 27.307 11.989 26.7048 11.7832L24.1368 15.6668C25.2788 16.7542 25.9928 18.2872 25.9988 19.9882L28.3388 20.3919C28.7317 19.5017 29.4359 18.7853 30.3196 18.3769C31.2032 17.9685 32.2056 17.8962 33.1387 18.1735C34.0719 18.4509 34.8718 19.0588 35.3886 19.8834C35.9053 20.708 36.1034 21.6926 35.9457 22.6527C35.7881 23.6128 35.2854 24.4825 34.532 25.0987C33.7786 25.715 32.8262 26.0354 31.8533 26.0001C30.8804 25.9648 29.9538 25.5761 29.2471 24.9068C28.5405 24.2376 28.1023 23.3337 28.0148 22.3647L25.6748 21.959C25.1799 23.3931 24.1613 24.5875 22.8228 25.3029L23.7108 28.0152C24.6818 27.9454 25.645 28.2319 26.4198 28.8209C27.1946 29.41 27.7279 30.2613 27.9196 31.2152C28.1113 32.1691 27.9484 33.1602 27.4613 34.0026C26.9742 34.845 26.1964 35.4809 25.2736 35.7912C24.3509 36.1015 23.3467 36.0649 22.4491 35.6881C21.5514 35.3114 20.8221 34.6204 20.3978 33.7447C19.9735 32.869 19.8833 31.8688 20.1442 30.9314C20.405 29.994 20.999 29.1839 21.8148 28.6528L20.9248 25.9345C19.8425 26.1043 18.7343 25.9742 17.7208 25.5583C16.7074 25.1425 15.8274 24.4568 15.1768 23.576L11.9068 25.151C12.1157 26.1013 11.9708 27.0951 11.499 27.9462C11.0272 28.7973 10.261 29.4473 9.34404 29.7742C8.42707 30.1011 7.42227 30.0826 6.51798 29.7221C5.6137 29.3616 4.87201 28.6839 4.43195 27.816C3.99188 26.9481 3.88366 25.9496 4.12756 25.0076C4.37145 24.0657 4.95073 23.245 5.7568 22.6993C6.56288 22.1537 7.5404 21.9206 8.50615 22.0437C9.4719 22.1668 10.3596 22.6377 11.0028 23.3681L14.2688 21.7951C13.9587 20.8009 13.9131 19.7432 14.1365 18.7261C14.3599 17.709 14.8446 16.7676 15.5428 15.9946L13.6728 13.6481C12.7884 14.0549 11.7859 14.1255 10.8532 13.8465C9.92053 13.5676 9.12165 12.9582 8.60635 12.1327C8.09104 11.3072 7.89468 10.3222 8.05408 9.36236C8.21347 8.40252 8.71767 7.53372 9.47217 6.91882C10.2267 6.30391 11.1797 5.98512 12.1525 6.0222C13.1254 6.05927 14.0513 6.44967 14.7568 7.12021C15.4622 7.79076 15.8988 8.69541 15.9845 9.66459C16.0703 10.6338 15.7995 11.601 15.2228 12.3849L17.1108 14.7534C17.9668 14.2817 18.9508 14.0119 19.9988 14.0119C20.8828 14.0119 21.7228 14.2017 22.4788 14.5455L25.0348 10.6819C24.5986 10.2009 24.2862 9.6209 24.1246 8.99215C23.9629 8.36339 23.957 7.70475 24.1072 7.07317C24.2574 6.44159 24.5592 5.85607 24.9866 5.36722C25.414 4.87838 25.9542 4.50091 26.5603 4.26745C27.1664 4.03399 27.8203 3.95156 28.4654 4.0273C29.1105 4.10303 29.7275 4.33464 30.263 4.70211C30.7985 5.06958 31.2364 5.56185 31.5388 6.13638C31.8412 6.7109 31.9991 7.35038 31.9988 7.99956ZM29.9988 7.99956C29.9988 7.46945 29.7881 6.96106 29.413 6.58621C29.0379 6.21137 28.5292 6.00079 27.9988 6.00079C27.4683 6.00079 26.9596 6.21137 26.5846 6.58621C26.2095 6.96106 25.9988 7.46945 25.9988 7.99956C25.9988 8.52966 26.2095 9.03806 26.5846 9.4129C26.9596 9.78774 27.4683 9.99833 27.9988 9.99833C28.5292 9.99833 29.0379 9.78774 29.413 9.4129C29.7881 9.03806 29.9988 8.52966 29.9988 7.99956ZM11.9988 12.0151C12.5292 12.0151 13.0379 11.8045 13.413 11.4297C13.7881 11.0548 13.9988 10.5464 13.9988 10.0163C13.9988 9.48621 13.7881 8.97782 13.413 8.60297C13.0379 8.22813 12.5292 8.01755 11.9988 8.01755C11.4683 8.01755 10.9596 8.22813 10.5846 8.60297C10.2095 8.97782 9.99876 9.48621 9.99876 10.0163C9.99876 10.5464 10.2095 11.0548 10.5846 11.4297C10.9596 11.8045 11.4683 12.0151 11.9988 12.0151ZM19.9988 24.0077C21.0596 24.0077 22.077 23.5865 22.8272 22.8369C23.5773 22.0872 23.9988 21.0704 23.9988 20.0102C23.9988 18.95 23.5773 17.9332 22.8272 17.1835C22.077 16.4338 21.0596 16.0126 19.9988 16.0126C18.9379 16.0126 17.9205 16.4338 17.1703 17.1835C16.4202 17.9332 15.9988 18.95 15.9988 20.0102C15.9988 21.0704 16.4202 22.0872 17.1703 22.8369C17.9205 23.5865 18.9379 24.0077 19.9988 24.0077ZM9.99876 26.0065C9.99876 25.4764 9.78805 24.968 9.41298 24.5931C9.03791 24.2183 8.5292 24.0077 7.99877 24.0077C7.46833 24.0077 6.95962 24.2183 6.58455 24.5931C6.20948 24.968 5.99877 25.4764 5.99877 26.0065C5.99877 26.5366 6.20948 27.045 6.58455 27.4198C6.95962 27.7947 7.46833 28.0052 7.99877 28.0052C8.5292 28.0052 9.03791 27.7947 9.41298 27.4198C9.78805 27.045 9.99876 26.5366 9.99876 26.0065ZM25.9988 32.0028C25.9988 31.4727 25.7881 30.9643 25.413 30.5894C25.0379 30.2146 24.5292 30.004 23.9988 30.004C23.4683 30.004 22.9596 30.2146 22.5846 30.5894C22.2095 30.9643 21.9988 31.4727 21.9988 32.0028C21.9988 32.5329 22.2095 33.0413 22.5846 33.4161C22.9596 33.791 23.4683 34.0016 23.9988 34.0016C24.5292 34.0016 25.0379 33.791 25.413 33.4161C25.7881 33.0413 25.9988 32.5329 25.9988 32.0028ZM31.9988 24.0077C32.5292 24.0077 33.0379 23.7971 33.413 23.4223C33.7881 23.0474 33.9988 22.539 33.9988 22.0089C33.9988 21.4788 33.7881 20.9704 33.413 20.5956C33.0379 20.2207 32.5292 20.0102 31.9988 20.0102C31.4683 20.0102 30.9596 20.2207 30.5846 20.5956C30.2095 20.9704 29.9988 21.4788 29.9988 22.0089C29.9988 22.539 30.2095 23.0474 30.5846 23.4223C30.9596 23.7971 31.4683 24.0077 31.9988 24.0077Z" fill="#FFF"/>
</g>
<defs>
<clipPath id="clip0_1_348">
<rect width="32" height="32" fill="white" transform="translate(4 4)"/>
</clipPath>
</defs>
</svg>
