<svg width="40" height="40" viewBox="0 0 40 40" fill="none" xmlns="http://www.w3.org/2000/svg">
<path d="M6.73326 33.3366C6.43858 33.3366 6.15596 33.2195 5.94759 33.0112C5.73922 32.8028 5.62215 32.5202 5.62215 32.2255V8.89214H3.39993C3.10524 8.89214 2.82263 8.77508 2.61426 8.56671C2.40588 8.35833 2.28882 8.07572 2.28882 7.78103C2.28882 7.48635 2.40588 7.20373 2.61426 6.99536C2.82263 6.78699 3.10524 6.66992 3.39993 6.66992H7.84437V32.2255C7.84437 32.5202 7.72731 32.8028 7.51894 33.0112C7.31056 33.2195 7.02795 33.3366 6.73326 33.3366Z" fill="#FFF"/>
<path d="M33.4 30H5.62222V10H33.4C34.2841 10 35.1319 10.3512 35.757 10.9763C36.3821 11.6014 36.7333 12.4493 36.7333 13.3333V26.6667C36.7333 27.5507 36.3821 28.3986 35.757 29.0237C35.1319 29.6488 34.2841 30 33.4 30ZM7.84445 27.7778H33.4C33.6947 27.7778 33.9773 27.6607 34.1857 27.4523C34.3941 27.244 34.5111 26.9614 34.5111 26.6667V13.3333C34.5111 13.0386 34.3941 12.756 34.1857 12.5477C33.9773 12.3393 33.6947 12.2222 33.4 12.2222H7.84445V27.7778Z" fill="#FFF"/>
<path d="M24.5111 22.2266H31.1778V24.4488H24.5111V22.2266Z" fill="#FFF"/>
<path d="M24.5111 15.5566H31.1778V17.7789H24.5111V15.5566Z" fill="#FFF"/>
<path d="M21.1777 24.4455H12.2888V22.2233H20.0666V15.5566H22.2888V23.3344C22.2888 23.6291 22.1718 23.9117 21.9634 24.1201C21.755 24.3285 21.4724 24.4455 21.1777 24.4455Z" fill="#FFF"/>
</svg>
