<svg width="40" height="40" viewBox="0 0 40 40" fill="none" xmlns="http://www.w3.org/2000/svg">
<path d="M32.444 9.33325H7.55512C7.08363 9.33325 6.63144 9.52055 6.29804 9.85395C5.96464 10.1873 5.77734 10.6395 5.77734 11.111V28.8888C5.77734 29.3603 5.96464 29.8125 6.29804 30.1459C6.63144 30.4793 7.08363 30.6666 7.55512 30.6666H20.8885L21.3951 30.0444L22.2218 29.031L22.1418 28.8888H7.55512V11.111H32.444V18.7199C33.1193 19.1571 33.7196 19.7004 34.2218 20.3288V11.111C34.2218 10.6395 34.0345 10.1873 33.7011 9.85395C33.3677 9.52055 32.9155 9.33325 32.444 9.33325Z" fill="#545454"/>
<path d="M10.2227 14.6667H25.3338V16.089H10.2227V14.6667Z" fill="#545454"/>
<path d="M10.2227 18.2222H20.0004V19.6444H10.2227V18.2222Z" fill="#545454"/>
<path d="M10.2227 24.4443H19.1115V25.8666H10.2227V24.4443Z" fill="#545454"/>
<path d="M28.4092 19.3156C27.2717 19.3066 26.1579 19.6409 25.2135 20.2749C24.269 20.9089 23.5377 21.813 23.1153 22.8692C22.6928 23.9253 22.5988 25.0844 22.8455 26.1948C23.0922 27.3053 23.6681 28.3155 24.4981 29.0934L22.7736 31.2001L23.5736 34.4089L26.8269 30.4445C27.8568 30.749 28.9527 30.749 29.9825 30.4445L33.2358 34.4089L34.0358 31.2001L32.3114 29.0934C33.1413 28.3155 33.7173 27.3053 33.9639 26.1948C34.2106 25.0844 34.1166 23.9253 33.6942 22.8692C33.2717 21.813 32.5404 20.9089 31.596 20.2749C30.6515 19.6409 29.5378 19.3066 28.4003 19.3156H28.4092ZM28.4092 28.8089C27.6538 28.7984 26.9184 28.5648 26.2954 28.1375C25.6725 27.7102 25.1897 27.1083 24.9079 26.4074C24.6261 25.7065 24.5578 24.9379 24.7116 24.1983C24.8654 23.4586 25.2344 22.781 25.7723 22.2505C26.3101 21.7201 26.9928 21.3605 27.7345 21.2169C28.4762 21.0733 29.2437 21.1523 29.9407 21.4437C30.6376 21.7352 31.2328 22.2262 31.6515 22.855C32.0701 23.4838 32.2935 24.2224 32.2936 24.9778C32.2842 26.0002 31.8703 26.9773 31.1423 27.6953C30.4143 28.4133 29.4316 28.8137 28.4092 28.8089Z" fill="#545454"/>
</svg>
