<svg width="40" height="40" viewBox="0 0 40 40" fill="none" xmlns="http://www.w3.org/2000/svg">
<path d="M31.2215 12.7744L36.0185 7.9774L32.0411 4L27.2441 8.79697L25.9182 12.7744L21.3406 17.352L16.7173 12.7287C17.5581 10.3626 16.9831 7.69111 15.193 5.901C11.4349 2.14297 6.67386 5.18086 6.54244 5.20553L10.5526 9.21567L9.22661 10.5414L5.21647 6.53125C5.16811 6.78995 2.09186 11.3614 5.91219 15.1818C7.70229 16.9721 10.374 17.5472 12.7396 16.7061L15.8792 19.8456C11.3607 22.9123 7.32121 27.0673 4.41962 31.6537L4.01876 32.2876L7.73087 36L8.36478 35.5989C12.9512 32.6973 17.1062 28.6579 20.1729 24.1391L26.6908 30.6573C26.4871 32.1061 26.9664 33.5845 28.0031 34.6213C29.8306 36.4487 32.8045 36.449 34.6322 34.6213C36.4641 32.7894 36.4643 29.8241 34.6322 27.9919C33.5957 26.9555 32.1171 26.4762 30.6682 26.6799L22.6665 18.6779L27.2441 14.1003L31.2215 12.7744ZM7.23791 13.8561C6.18774 12.8059 5.72507 11.3285 5.92929 9.89575L9.22686 13.1931L13.2043 9.21567L9.90694 5.91835C11.3397 5.71388 12.8171 6.1768 13.8672 7.22697C16.4798 9.83957 14.4904 13.0924 14.4816 13.1447L20.0149 18.6779L18.6889 20.0037L13.1556 14.4704C13.1273 14.4753 9.83732 16.4552 7.23791 13.8561ZM7.99054 33.6077L6.41101 32.0282C9.20854 27.8046 13.0093 24.0006 17.2305 21.197L18.8215 22.788C16.0179 27.0092 12.2142 30.81 7.99054 33.6077ZM30.0778 28.7409C30.2566 28.7316 31.9432 27.9546 33.3065 29.3179C34.4055 30.4169 34.4058 32.196 33.3065 33.2953C32.2099 34.3919 30.4254 34.3919 29.3288 33.2953C27.9582 31.9249 28.7423 30.2542 28.7521 30.0669L20.0149 21.3296L21.3406 20.0037L30.0778 28.7409ZM28.883 9.80977L32.0411 6.65168L33.3668 7.9774L30.2088 11.1355L28.2201 11.7985L28.883 9.80977Z" fill="#FFF"/>
</svg>
