<svg width="40" height="40" viewBox="0 0 40 40" fill="none" xmlns="http://www.w3.org/2000/svg">
<path d="M23 29H27V33H23V29ZM30 29H34V33H30V29ZM23 22H27V26H23V22ZM30 22H34V26H30V22Z" fill="#545454"/>
<path d="M21 29H8V15H32V20H34V15C33.9995 14.4697 33.7886 13.9613 33.4136 13.5864C33.0387 13.2114 32.5303 13.0005 32 13H26V9C25.9995 8.46973 25.7886 7.96133 25.4136 7.58637C25.0387 7.21141 24.5303 7.00053 24 7H16C15.4697 7.00053 14.9613 7.21141 14.5864 7.58637C14.2114 7.96133 14.0005 8.46973 14 9V13H8C7.46973 13.0005 6.96133 13.2114 6.58637 13.5864C6.21141 13.9613 6.00053 14.4697 6 15V29C6.00053 29.5303 6.21141 30.0387 6.58637 30.4136C6.96133 30.7886 7.46973 30.9995 8 31H21V29ZM16 9H24V13H16V9Z" fill="#545454"/>
</svg>
