<svg width="40" height="40" viewBox="0 0 40 40" fill="none" xmlns="http://www.w3.org/2000/svg">
<path d="M34 32.6L31.2 29.8C31.7 29 32 28 32 27C32 24.2 29.8 22 27 22C24.2 22 22 24.2 22 27C22 29.8 24.2 32 27 32C28 32 29 31.7 29.8 31.2L32.6 34L34 32.6ZM24 27C24 25.3 25.3 24 27 24C28.7 24 30 25.3 30 27C30 28.7 28.7 30 27 30C25.3 30 24 28.7 24 27ZM12 20H22V22H12V20ZM12 14H24V16H12V14Z" fill="#545454"/>
<path d="M18 31.7L12.8 28.9C9.8 27.4 8 24.3 8 21V8H28V19H30V8C30 6.9 29.1 6 28 6H8C6.9 6 6 6.9 6 8V21C6 25.1 8.2 28.8 11.8 30.7L18 34V31.7Z" fill="#545454"/>
</svg>
