<svg width="40" height="40" viewBox="0 0 40 40" fill="none" xmlns="http://www.w3.org/2000/svg">
<path d="M20 27.457C18.4093 27.4551 16.8842 26.8224 15.7594 25.6976C14.6346 24.5728 14.0019 23.0477 14 21.457V15L20 12L26 15V21.456C25.9981 23.0467 25.3654 24.5718 24.2406 25.6966C23.1158 26.8214 21.5907 27.4551 20 27.457ZM16 16.235V21.457C16 22.5179 16.4214 23.5353 17.1716 24.2854C17.9217 25.0356 18.9391 25.457 20 25.457C21.0609 25.457 22.0783 25.0356 22.8284 24.2854C23.5786 23.5353 24 22.5179 24 21.457V16.235L20 14.235L16 16.235Z" fill="#FFF"/>
<path d="M20 35.0003C19.8229 35.0004 19.649 34.9535 19.496 34.8643L7.496 27.8643C7.34502 27.7762 7.21978 27.6501 7.13275 27.4985C7.04572 27.3469 6.99995 27.1751 7 27.0003V13.0003C6.99995 12.8255 7.04572 12.6537 7.13275 12.5021C7.21978 12.3505 7.34502 12.2244 7.496 12.1363L19.496 5.1363C19.649 5.04704 19.8229 5 20 5C20.1771 5 20.351 5.04704 20.504 5.1363L32.504 12.1363L31.496 13.8643L20 7.1583L9 13.5743V26.4263L20 32.8433L31 26.4263V19.0003H33V27.0003C33.0001 27.1751 32.9543 27.3469 32.8673 27.4985C32.7802 27.6501 32.655 27.7762 32.504 27.8643L20.504 34.8643C20.351 34.9535 20.1771 35.0004 20 35.0003Z" fill="#FFF"/>
</svg>
