<svg width="33" height="34" viewBox="0 0 33 34" fill="none" xmlns="http://www.w3.org/2000/svg">
<path d="M9.15877 19.1797C9.19211 19.1839 9.22356 19.1975 9.24938 19.219C9.2752 19.2405 9.29431 19.269 9.30444 19.301C9.44216 19.7613 9.62274 20.2077 9.84381 20.6343C9.85909 20.6646 9.8653 20.6987 9.8617 20.7325C9.85811 20.7662 9.84486 20.7982 9.82354 20.8247L9.08937 21.7378C8.89954 21.9694 8.80293 22.2634 8.81844 22.5624C8.83394 22.8614 8.96044 23.1439 9.1732 23.3546L10.41 24.5914C10.6199 24.8044 10.9018 24.9314 11.2005 24.9475C11.4992 24.9636 11.7931 24.8676 12.0247 24.6783L12.921 23.9568C12.947 23.9349 12.9789 23.9212 13.0126 23.9171C13.0464 23.9131 13.0806 23.919 13.111 23.9341C13.545 24.1685 14.0012 24.3593 14.4728 24.5038C14.5053 24.5142 14.5339 24.5341 14.555 24.5609C14.5761 24.5877 14.5888 24.6202 14.5914 24.6542L14.7133 25.7955C14.747 26.0915 14.8882 26.3647 15.1103 26.5633C15.3323 26.7618 15.6196 26.8718 15.9175 26.8722H17.6655C17.964 26.8715 18.2518 26.7609 18.474 26.5616C18.6962 26.3623 18.8373 26.0881 18.8703 25.7914L18.9919 24.6501C18.995 24.6166 19.008 24.5848 19.0292 24.5587C19.0504 24.5327 19.079 24.5135 19.1111 24.5038C19.5816 24.3581 20.037 24.1674 20.4709 23.9345C20.5019 23.9192 20.5367 23.9133 20.5711 23.9176C20.6054 23.9219 20.6377 23.9361 20.664 23.9585L21.5545 24.6745C21.786 24.8643 22.0801 24.9609 22.3791 24.9454C22.6781 24.9299 22.9606 24.8034 23.1712 24.5907L24.408 23.3539C24.6211 23.144 24.7481 22.862 24.7642 22.5634C24.7802 22.2647 24.6842 21.9708 24.4949 21.7392L23.7494 20.8192C23.7291 20.7927 23.7169 20.7609 23.7144 20.7277C23.7118 20.6944 23.719 20.6612 23.735 20.6319C23.9535 20.2057 24.1333 19.7607 24.2723 19.3024C24.2828 19.2695 24.3026 19.2404 24.3293 19.2185C24.356 19.1967 24.3885 19.1831 24.4228 19.1794L25.6091 19.053C25.905 19.0193 26.1783 18.878 26.3768 18.656C26.5754 18.4339 26.6853 18.1467 26.6858 17.8488V16.1008C26.6872 15.8017 26.5774 15.5127 26.3776 15.29C26.1779 15.0674 25.9025 14.9269 25.605 14.896L24.3833 14.7654C24.3498 14.7608 24.3184 14.7467 24.2926 14.7247C24.2669 14.7028 24.2479 14.674 24.238 14.6417C24.0946 14.1997 23.9135 13.7707 23.6969 13.3596C23.6807 13.3295 23.6741 13.2952 23.6779 13.2613C23.6817 13.2273 23.6957 13.1954 23.7182 13.1696L24.4881 12.2118C24.6779 11.9802 24.7745 11.6862 24.759 11.3872C24.7435 11.0882 24.617 10.8057 24.4043 10.595L23.1675 9.35824C22.9573 9.14561 22.6754 9.01889 22.3769 9.00282C22.0784 8.98675 21.7845 9.08248 21.5528 9.27132L20.5651 10.0694C20.5392 10.0896 20.508 10.1019 20.4753 10.1046C20.4426 10.1074 20.4098 10.1005 20.3809 10.0849C19.9794 9.87652 19.5602 9.70408 19.1283 9.56952C19.0944 9.5594 19.0641 9.53974 19.041 9.51288C19.0179 9.48602 19.003 9.45309 18.9981 9.41802L18.8665 8.15168C18.8335 7.85601 18.6925 7.58293 18.4706 7.38471C18.2488 7.18649 17.9616 7.07707 17.6641 7.07739H15.9147C15.6161 7.07779 15.3281 7.18826 15.1059 7.38766C14.8836 7.58705 14.7426 7.8614 14.7099 8.15821L14.5749 9.42077C14.5712 9.45443 14.5578 9.48629 14.5364 9.51247C14.5149 9.53865 14.4862 9.558 14.4539 9.56815C14.0204 9.70245 13.5996 9.8749 13.1965 10.0835C13.1663 10.0994 13.132 10.1059 13.0981 10.1023C13.0641 10.0986 13.032 10.0849 13.0059 10.0629L12.0257 9.2751C11.7942 9.08527 11.5001 8.98866 11.2011 9.00416C10.9021 9.01967 10.6196 9.14617 10.409 9.35893L9.17217 10.5957C8.95911 10.8056 8.83211 11.0876 8.81603 11.3862C8.79995 11.6849 8.89596 11.9788 9.08525 12.2104L9.85996 13.1741C9.88155 13.2011 9.89464 13.2338 9.89758 13.2683C9.90051 13.3027 9.89316 13.3372 9.87645 13.3675C9.66117 13.7768 9.48129 14.2038 9.33879 14.6438C9.32847 14.6767 9.30889 14.7059 9.28238 14.728C9.25588 14.75 9.22358 14.764 9.18935 14.7682L7.97351 14.8984C7.67564 14.9289 7.39979 15.0692 7.19963 15.2919C6.99947 15.5146 6.88933 15.8038 6.89064 16.1032V17.8512C6.89034 18.0744 6.95169 18.2934 7.06791 18.484C7.16593 18.6411 7.29809 18.7742 7.45457 18.8732C7.61106 18.9722 7.78784 19.0347 7.9718 19.056L9.15877 19.1797ZM7.92198 17.8488V16.1008C7.92186 16.0564 7.93808 16.0136 7.96755 15.9805C7.99702 15.9473 8.03767 15.9262 8.08173 15.9211L9.29585 15.7909C9.52841 15.7667 9.74893 15.6754 9.93057 15.5282C10.1122 15.381 10.2471 15.1841 10.3189 14.9616C10.4434 14.5778 10.6006 14.2053 10.7889 13.8485C10.8997 13.6398 10.9468 13.4032 10.9244 13.168C10.9019 12.9328 10.8108 12.7094 10.6625 12.5254L9.88641 11.5601C9.85928 11.5261 9.84583 11.4832 9.84869 11.4397C9.85155 11.3963 9.87052 11.3556 9.90187 11.3254L11.1387 10.0886C11.1697 10.0564 11.2118 10.0371 11.2565 10.0348C11.3011 10.0325 11.345 10.0474 11.3791 10.0763L12.3569 10.8623C12.5384 11.0125 12.7602 11.1057 12.9945 11.1302C13.2288 11.1546 13.4651 11.1092 13.6737 10.9997C14.0245 10.8191 14.3904 10.6697 14.7673 10.5531C14.9911 10.4822 15.1895 10.3474 15.3379 10.1655C15.4864 9.98352 15.5785 9.7622 15.6031 9.52864L15.7371 8.27364C15.7414 8.22884 15.7623 8.18726 15.7956 8.15707C15.829 8.12688 15.8725 8.11025 15.9175 8.11046H17.6655C17.7097 8.10975 17.7526 8.12555 17.7858 8.15477C17.8191 8.18398 17.8402 8.22453 17.8451 8.26849L17.976 9.53242C18.0037 9.7659 18.0981 9.98646 18.2479 10.1677C18.3976 10.349 18.5964 10.4833 18.8205 10.5545C19.1957 10.6713 19.56 10.8207 19.9092 11.0011C20.1164 11.1102 20.3511 11.1559 20.584 11.1325C20.8169 11.1091 21.0379 11.0176 21.2192 10.8695L22.2079 10.0749C22.242 10.0478 22.2848 10.0344 22.3282 10.0373C22.3716 10.0401 22.4124 10.0591 22.4426 10.0903L23.6794 11.3271C23.7111 11.358 23.73 11.3997 23.7323 11.4439C23.7346 11.4881 23.7201 11.5316 23.6917 11.5656L22.9204 12.5254C22.7699 12.7088 22.6774 12.9328 22.6547 13.1689C22.632 13.405 22.6801 13.6426 22.793 13.8512C22.981 14.2086 23.138 14.5815 23.2623 14.9657C23.3341 15.1865 23.4682 15.3818 23.6484 15.5281C23.8287 15.6745 24.0474 15.7656 24.2782 15.7906L25.4981 15.9211C25.5418 15.9266 25.582 15.9479 25.6111 15.981C25.6402 16.0141 25.6561 16.0567 25.6558 16.1008V17.8488C25.6551 17.8929 25.6387 17.9352 25.6094 17.9682C25.5802 18.0012 25.5401 18.0226 25.4964 18.0285L24.3184 18.1542C24.0818 18.1776 23.8575 18.2708 23.674 18.422C23.4905 18.5731 23.356 18.7754 23.2877 19.0031C23.1665 19.4018 23.01 19.7889 22.8201 20.1599C22.711 20.3672 22.6654 20.602 22.6888 20.8351C22.7123 21.0681 22.8038 21.2891 22.9521 21.4705L23.6924 22.3912C23.7195 22.4253 23.733 22.4682 23.7301 22.5116C23.7273 22.555 23.7083 22.5957 23.677 22.6259L22.4402 23.8627C22.4093 23.8944 22.3676 23.9132 22.3234 23.9155C22.2792 23.9178 22.2357 23.9034 22.2017 23.8751L21.3085 23.1577C21.1249 23.0073 20.901 22.9146 20.6648 22.8913C20.4286 22.8679 20.1908 22.9149 19.9814 23.0265C19.6063 23.2278 19.2127 23.3927 18.8061 23.5188C18.5797 23.5874 18.3788 23.7215 18.2287 23.9043C18.0787 24.0871 17.9862 24.3103 17.963 24.5457L17.8424 25.6794C17.8372 25.7239 17.8161 25.765 17.7829 25.7951C17.7497 25.8252 17.7068 25.8423 17.662 25.8433H15.9147C15.8706 25.8426 15.8282 25.8261 15.7952 25.7968C15.7622 25.7674 15.7409 25.7273 15.7351 25.6835L15.6141 24.5498C15.5915 24.3138 15.4992 24.0899 15.3491 23.9064C15.199 23.7229 14.9978 23.5881 14.771 23.5191C14.3643 23.3942 13.9709 23.2295 13.5964 23.0275C13.4227 22.934 13.2285 22.8852 13.0313 22.8853C12.754 22.8855 12.4853 22.9813 12.2703 23.1563L11.3723 23.8778C11.3383 23.9049 11.2954 23.9184 11.252 23.9155C11.2086 23.9127 11.1678 23.8937 11.1376 23.8623L9.90084 22.6256C9.8691 22.5947 9.85018 22.553 9.84789 22.5088C9.8456 22.4646 9.86009 22.4211 9.88848 22.3871L10.6247 21.4712C10.7721 21.2889 10.8631 21.0676 10.8866 20.8344C10.9101 20.6012 10.865 20.3662 10.757 20.1582C10.5655 19.788 10.409 19.4007 10.2897 19.0014C10.2216 18.7748 10.088 18.5735 9.90559 18.4228C9.72321 18.2721 9.50028 18.1787 9.26493 18.1546L8.08998 18.0295C8.06093 18.0261 8.03298 18.0164 8.00811 18.001C7.98323 17.9856 7.96204 17.965 7.94603 17.9405C7.9301 17.9126 7.92157 17.8809 7.92198 17.8488Z" fill="#454545"/>
<path fill-rule="evenodd" clip-rule="evenodd" d="M15.0164 12.6978C15.8623 12.3473 16.7932 12.2556 17.6913 12.4341C18.5895 12.6127 19.4144 13.0536 20.062 13.7011C20.7095 14.3486 21.1505 15.1735 21.3291 16.0716C21.5078 16.9697 21.4161 17.9006 21.0656 18.7466C20.7152 19.5926 20.1217 20.3157 19.3603 20.8244C18.5989 21.3331 17.7038 21.6045 16.7881 21.6045C15.561 21.6029 14.3842 21.1148 13.5165 20.2471C12.6487 19.3794 12.1605 18.203 12.1589 16.9759C12.1587 16.0602 12.4301 15.1647 12.9388 14.4033C13.4474 13.6418 14.1704 13.0483 15.0164 12.6978ZM18.5099 14.3983C18.0003 14.0579 17.4011 13.8762 16.7883 13.8762C15.9666 13.8771 15.1788 14.204 14.5979 14.785C14.0169 15.3661 13.6902 16.1539 13.6895 16.9756C13.6896 17.5885 13.8714 18.1876 14.212 18.6971C14.5525 19.2067 15.0366 19.6039 15.6028 19.8384C16.1691 20.0729 16.7922 20.1342 17.3933 20.0145C17.9945 19.8949 18.5466 19.5997 18.98 19.1663C19.4133 18.7328 19.7084 18.1806 19.8279 17.5795C19.9474 16.9783 19.886 16.3552 19.6514 15.789C19.4168 15.2228 19.0195 14.7388 18.5099 14.3983Z" fill="#454545"/>
<path fill-rule="evenodd" clip-rule="evenodd" d="M24.1434 0.816106C24.3289 0.733572 24.5396 0.728108 24.7291 0.800915C24.9187 0.873722 25.0715 1.01884 25.154 1.20433L26.5591 4.36287C26.6 4.45473 26.6224 4.55374 26.6251 4.65426C26.6277 4.75478 26.6105 4.85483 26.5744 4.9487C26.5384 5.04257 26.4842 5.12841 26.4149 5.20132C26.3457 5.27422 26.2627 5.33277 26.1708 5.37361L23.0123 6.77835C22.9205 6.81922 22.8215 6.8416 22.7211 6.84422C22.6206 6.84684 22.5206 6.82964 22.4267 6.79362C22.3329 6.75758 22.2471 6.70342 22.1742 6.63423C22.1013 6.56504 22.0427 6.48216 22.0019 6.39034C21.961 6.29851 21.9386 6.19953 21.936 6.09906C21.9334 5.99858 21.9506 5.89857 21.9866 5.80474C22.0226 5.71092 22.0768 5.6251 22.146 5.5522C22.2152 5.4793 22.2981 5.42074 22.3899 5.37987L24.2649 4.5455C21.5023 2.88265 18.2596 2.18544 15.0495 2.5723C11.6846 2.97781 8.56802 4.54882 6.24068 7.01259C3.91334 9.47637 2.52223 12.6773 2.30885 16.0598C2.09548 19.4423 3.07331 22.7927 5.0726 25.5294C5.1924 25.6932 5.24226 25.8978 5.21122 26.0984C5.18017 26.299 5.07071 26.479 4.90691 26.5989C4.74311 26.7188 4.53839 26.7687 4.33779 26.7376C4.13719 26.7066 3.95714 26.5971 3.83726 26.4333C1.66765 23.4631 0.584795 19.8372 0.770451 16.1636C0.956106 12.4901 2.39884 8.99199 4.85685 6.25564C7.31486 3.5193 10.6388 1.711 14.2714 1.13385C17.6582 0.595758 21.1214 1.15826 24.1558 2.72775L23.7552 1.82672C23.6727 1.64124 23.6672 1.43052 23.74 1.24101C23.8128 1.05148 23.9579 0.89864 24.1434 0.816106Z" fill="#454545"/>
<path fill-rule="evenodd" clip-rule="evenodd" d="M28.939 7.21745C29.0378 7.19382 29.1403 7.19008 29.2405 7.20644C29.3407 7.22281 29.4366 7.25895 29.5227 7.31276C29.5694 7.34193 29.6127 7.37597 29.6519 7.41423H29.6666L29.7415 7.51684C31.9076 10.4846 32.9891 14.106 32.8051 17.7755C32.6211 21.4451 31.1827 24.9401 28.7306 27.6763C26.2785 30.4124 22.9613 32.2236 19.3338 32.8071C15.9511 33.3511 12.4899 32.7968 9.45427 31.2362L9.87081 32.1726C9.95333 32.3581 9.95883 32.5687 9.88607 32.7582C9.81331 32.9477 9.66825 33.1005 9.4828 33.1831C9.29735 33.2656 9.0867 33.2711 8.8972 33.1983C8.7077 33.1256 8.55488 32.9805 8.47233 32.7951L7.06718 29.6364L7.06676 29.6354C7.00289 29.4902 6.98572 29.3288 7.01762 29.1734C7.04907 29.0202 7.12667 28.8804 7.23991 28.7727C7.33086 28.6797 7.44418 28.6118 7.56887 28.5753L10.6137 27.2207C10.7055 27.1798 10.8045 27.1574 10.9049 27.1548C11.0054 27.1522 11.1054 27.1694 11.1993 27.2054C11.2931 27.2414 11.3789 27.2956 11.4518 27.3648C11.5247 27.434 11.5833 27.5169 11.6241 27.6087C11.665 27.7005 11.6874 27.7995 11.69 27.9C11.6926 28.0004 11.6754 28.1005 11.6394 28.1943C11.6034 28.2881 11.5492 28.3739 11.48 28.4468C11.4108 28.5197 11.3279 28.5783 11.2361 28.6192L9.38349 29.4434C12.1485 31.0852 15.3854 31.7639 18.5851 31.3646C21.9405 30.9458 25.0442 29.3678 27.3596 26.9035C29.675 24.4391 31.0566 21.2432 31.2656 17.8682C31.4746 14.4939 30.4983 11.1526 28.5054 8.42167C28.4448 8.34113 28.4008 8.24941 28.3758 8.15179C28.3506 8.05343 28.3452 7.95104 28.3599 7.85058C28.3747 7.75012 28.4093 7.6536 28.4617 7.56663C28.5141 7.47968 28.5833 7.40402 28.6653 7.34407C28.7472 7.28412 28.8403 7.24108 28.939 7.21745Z" fill="#454545"/>
</svg>
